<?xml version="1.0" standalone="no"?><!DOCTYPE svg PUBLIC "-//W3C//DTD SVG 1.1//EN" "http://www.w3.org/Graphics/SVG/1.1/DTD/svg11.dtd"><svg t="1554106502111" class="icon" style="" viewBox="0 0 1024 1024" version="1.1" xmlns="http://www.w3.org/2000/svg" p-id="1112" xmlns:xlink="http://www.w3.org/1999/xlink" width="128" height="128"><defs><style type="text/css"></style></defs><path d="M932.004 627.248h-279.32c-15.42 0-27.932 12.552-27.932 27.896 0 15.342 14.608 26.221 26.535 37.938l77.623 77.551c-58.294 49.376-133.487 79.503-215.942 79.503-166.028 0-303.509-120.79-330.157-278.96h-112.9c27.568 220.1 215.188 390.545 443.057 390.545 113.348 0 216.585-42.403 295.296-111.863l80.054 80.061C903.345 944.983 916.586 962 932.004 962s27.932-12.553 27.932-27.896v-278.96c0-3.348 0-27.896-27.932-27.896zM93.932 403.52h279.32c15.419 0 27.932-12.553 27.932-27.896s-14.609-26.223-26.535-37.939l-77.623-77.55c58.293-49.377 133.487-79.505 215.942-79.505 166.028 0 303.51 120.79 330.156 278.96h112.9c-27.567-220.1-215.187-390.543-443.056-390.543-113.32 0-216.585 42.401-295.297 111.863l-80.026-80.063c-15.055-15.063-28.294-32.08-43.713-32.08C78.514 68.769 66 81.323 66 96.666v278.96c0 3.348 0 27.896 27.932 27.896z" fill="#000000" p-id="1113"></path></svg>